# xmcd
#
# Track frame offsets: 
#        150
#        12904
#        22369
#        32901
#        42643
#        53207
#        65544
#        76321
#        88138
#        96282
#        107882
#        124537
#
# Disc length: 1919 seconds
#
# Revision: 1
# Processed by: cddbd v1.5.2PL0 Copyright (c) Steve Scherf et al.
# Submitted via: ExactAudioCopyFreeDBPlugin 1.0
#
DISCID=a5077d0c
DTITLE=Raimonds Pauls - Joku Dziesmas
DYEAR=1977
DGENRE=Oldies
TTITLE0=Tā es tevi mīlēšu
TTITLE1=Ja es ticīgs būtu
TTITLE2=Balta pūka
TTITLE3=Es rakstu Dženijai
TTITLE4=Viena tante teica
TTITLE5=Lauku gurķis Rīgas tirgū
TTITLE6=Resnā Minna
TTITLE7=Atnāk jauka vasariņa
TTITLE8=Iedzersim pa glāzei
TTITLE9=Beigas labas, viss labs
TTITLE10=Kāzas
TTITLE11=Dresleriāna
EXTD=
EXTT0=
EXTT1=
EXTT2=
EXTT3=
EXTT4=
EXTT5=
EXTT6=
EXTT7=
EXTT8=
EXTT9=
EXTT10=
EXTT11=
PLAYORDER=
